<svg width="62" height="40" fill="none" xmlns="http://www.w3.org/2000/svg"><rect y=".625" width="62" height="38.75" rx="5" fill="#6B5AF9"/><g clip-path="url(#a)"><path d="m40.788 25.006-2.794-2.794c-.998-.998-2.694-.599-3.093.698-.3.898-1.297 1.397-2.196 1.198-1.995-.5-4.69-3.094-5.188-5.19-.3-.897.3-1.895 1.197-2.194 1.297-.4 1.697-2.096.699-3.094l-2.794-2.794c-.799-.698-1.996-.698-2.695 0l-1.895 1.896c-1.896 1.996.2 7.285 4.889 11.974 4.69 4.69 9.979 6.886 11.974 4.89l1.896-1.896c.699-.798.699-1.996 0-2.694z" fill="#fff"/></g><defs><clipPath id="a"><path fill="#fff" transform="translate(21.313 10.313)" d="M0 0h20.021v20.021H0z"/></clipPath></defs></svg>